# xmcd
# 
# Track frame offsets:
#     150
#     27779
#     46686
#     69926
#     98991
#     131994
#     170064
#     201394
#     231339
#     259199
#     294579
# 
# Disc length: 4392
# 
# Revision: 3
# Processed by: cddbd v1.5.2PL0 Copyright (c) Steve Scherf et al.
# Submitted via: BonkEnc v1.0
# 
DISCID=a311260b
DTITLE=Ministério Ouvir e Crer - Atraído Por Ti
DYEAR=2005
DGENRE=Gospel
TTITLE0=No Brilho das Pedras Afogueadas
TTITLE1=Banquete de Adoração
TTITLE2=Glória E Força
TTITLE3=Perfume Derramado
TTITLE4=Amigo Pessoal
TTITLE5=Jesus Eu Te Amo
TTITLE6=Jogar Minha Coroa
TTITLE7=Voar
TTITLE8=Atraído Por Ti
TTITLE9=O Que Farei? (Manjedoura)
TTITLE10=No Sobrenatural
EXTD=
EXTT0=
EXTT1=
EXTT2=
EXTT3=
EXTT4=
EXTT5=
EXTT6=
EXTT7=
EXTT8=
EXTT9=
EXTT10=
PLAYORDER=
